<svg width="126" height="34" viewBox="0 0 126 34" fill="none" xmlns="http://www.w3.org/2000/svg">
<path d="M1.76989 27V6.63636H15.2528V10.1861H6.07528V15.0384H14.358V18.5881H6.07528V27H1.76989ZM18.1488 27V6.63636H31.8704V10.1861H22.4542V15.0384H31.1644V18.5881H22.4542V23.4503H31.9102V27H18.1488ZM39.8771 27L34.0504 6.63636H38.7536L42.1243 20.7855H42.2933L46.0121 6.63636H50.0391L53.7479 20.8153H53.9268L57.2976 6.63636H62.0007L56.174 27H51.978L48.1001 13.6861H47.9411L44.0732 27H39.8771ZM64.0863 27V24.4446L74.2482 10.1861H64.0664V6.63636H79.6573V9.19176L69.4854 23.4503H79.6772V27H64.0863ZM82.9808 27V6.63636H96.7024V10.1861H87.2862V15.0384H95.9964V18.5881H87.2862V23.4503H96.7422V27H82.9808ZM107.344 27H100.125V6.63636H107.404C109.452 6.63636 111.215 7.04403 112.694 7.85938C114.172 8.66809 115.309 9.83144 116.104 11.3494C116.906 12.8674 117.307 14.6837 117.307 16.7983C117.307 18.9195 116.906 20.7424 116.104 22.267C115.309 23.7917 114.165 24.9616 112.674 25.777C111.189 26.5923 109.412 27 107.344 27ZM104.431 23.3111H107.165C108.438 23.3111 109.508 23.0857 110.377 22.6349C111.252 22.1776 111.908 21.4716 112.346 20.517C112.79 19.5559 113.012 18.3163 113.012 16.7983C113.012 15.2936 112.79 14.0639 112.346 13.1094C111.908 12.1548 111.255 11.4522 110.387 11.0014C109.518 10.5507 108.448 10.3253 107.175 10.3253H104.431V23.3111Z" fill="#F9FAFB"/>
<path d="M121.608 27.2585C120.951 27.2585 120.388 27.0265 119.917 26.5625C119.453 26.0919 119.221 25.5284 119.221 24.8722C119.221 24.2225 119.453 23.6657 119.917 23.2017C120.388 22.7377 120.951 22.5057 121.608 22.5057C122.244 22.5057 122.801 22.7377 123.278 23.2017C123.755 23.6657 123.994 24.2225 123.994 24.8722C123.994 25.3097 123.881 25.7107 123.656 26.0753C123.437 26.4332 123.149 26.7216 122.791 26.9403C122.433 27.1525 122.038 27.2585 121.608 27.2585Z" fill="url(#paint0_linear_57_44)"/>
<defs>
<linearGradient id="paint0_linear_57_44" x1="63" y1="0" x2="63" y2="34" gradientUnits="userSpaceOnUse">
<stop stop-color="#A951C4"/>
<stop offset="1" stop-color="#8F39A9"/>
</linearGradient>
</defs>
</svg>
