<svg width="215" height="499" viewBox="0 0 215 499" fill="none" xmlns="http://www.w3.org/2000/svg">
<path d="M195.5 19L211.5 26V56L189.5 79.5L211.5 110.5L189.5 137.5L145.5 146.5L135 163L121 186L127 201.5L145.5 212V229L152.5 255V277L145.5 287.5L135 294.5C132.333 294.167 127 295.1 127 301.5C127 307.9 123 321.167 121 327V359.5C124.167 364.167 128.6 375.6 121 384C111.5 394.5 103.5 413.5 100 418.5C97.2 422.5 91.1667 432.833 88.5 437.5L63 459.5H43H21L12 471L2.5 487V496.5" stroke="#333333" stroke-width="4" stroke-linecap="round"/>
<circle opacity="0.3" cx="196" cy="19" r="19" fill="#A951C4"/>
<circle cx="196" cy="19" r="4" fill="#F4F7F8"/>
</svg>
