<svg width="59" height="44" viewBox="0 0 59 44" fill="none" xmlns="http://www.w3.org/2000/svg">
<circle cx="37" cy="22" r="21.5" stroke="#4F4F4F"/>
<path d="M1 21C0.447715 21 4.82823e-08 21.4477 0 22C-4.82823e-08 22.5523 0.447715 23 1 23L1 21ZM38.7071 22.7071C39.0976 22.3166 39.0976 21.6834 38.7071 21.2929L32.3431 14.9289C31.9526 14.5384 31.3195 14.5384 30.9289 14.9289C30.5384 15.3195 30.5384 15.9526 30.9289 16.3431L36.5858 22L30.9289 27.6569C30.5384 28.0474 30.5384 28.6805 30.9289 29.0711C31.3195 29.4616 31.9526 29.4616 32.3431 29.0711L38.7071 22.7071ZM1 23L38 23L38 21L1 21L1 23Z" fill="white"/>
</svg>
